<?xml version="1.0" encoding="utf-8"?>
<!-- Generator: Adobe Illustrator 22.1.0, SVG Export Plug-In . SVG Version: 6.00 Build 0)  -->
<svg version="1.1" xmlns="http://www.w3.org/2000/svg" xmlns:xlink="http://www.w3.org/1999/xlink" x="0px" y="0px"
	 viewBox="0 0 2000 1500" style="enable-background:new 0 0 2000 1500;" xml:space="preserve">
<style type="text/css">
	.st0{fill:url(#SVGID_1_);}
	.st1{fill:#F8D03B;}
	.st2{opacity:0.5;fill:#FFEEB6;}
	.st3{fill:#352215;}
	.st4{fill:#2D1D11;}
</style>
<g id="Baclground">
	<linearGradient id="SVGID_1_" gradientUnits="userSpaceOnUse" x1="1000" y1="1314.9823" x2="1000" y2="1.8779">
		<stop  offset="0" style="stop-color:#FF4200"/>
		<stop  offset="0.1345" style="stop-color:#FFAD00"/>
		<stop  offset="1" style="stop-color:#ACBFEA"/>
	</linearGradient>
	<rect class="st0" width="2000" height="1377.1"/>
	<circle class="st1" cx="1730.9" cy="1206.4" r="117.8"/>
	<path class="st2" d="M2000,1197.9c-46.4-26.8-90.1-9.9-100,0c-9.9,9.9,10.2,16.6-51.3,8.6s-37.2-16.6-90.1-16.6s-40,0-65.7,0
		c-25.7,0,8.6,6.9-67.1,6.9c-75.7,0-5.7-8.8-82.9,0c-77.1,8.8-58.7,21.2-185.1,21.2s-93.5-4-146.7,0s-69.6-1.4-145.4,11
		c-75.7,12.4-172.8,12.4-172.8,12.4l-68.6-0.3c0,0-158.6,22.2-200,27.9s-83.7,9.6-130,5.2c-46.3-4.4-60-6.7-90-6.7
		s-41.4,1.5-58.6,1.5s7.1-4.1-17.1,0c-24.3,4.1-28.4-0.1-24.3,4.1s20.5,23.8,49.5,30.3c29,6.5,10.5,12.7,56.2,12.7s1590,0,1590,0
		V1197.9z"/>
	<path class="st2" d="M0,1198c81,0,155.3,9.2,238.3,16.7c82.9,7.6,163.6-8.4,218.6-8.4s82.5,3.2,143,20.4
		c60.5,17.3,248.6-16.6,335.1,0.3s165.2-8.3,243.3-8.3c78,0,88.4,7.1,179.5,7.1s78.3-3.8,146.1,9.8c67.8,13.6,80.7,21.5,155.9,34.3
		c75.2,12.8,166.9,59.6,166.9,59.6H0V1198z"/>
	<path class="st3" d="M135.3,1217.1c25.6-4.3,81.8-59.8,120.2-59.8s154.3,108.3,251.5,137.2c-151.7,0-371.7,0-371.7,0V1217.1z"/>
	<path class="st4" d="M0,1197.9c24-24,75.7-53.6,105.2-53.6s172.4,155.6,248.6,171.8H0V1197.9z"/>
	<path class="st3" d="M1440.2,1316c48.2-27.9,158.8-94.3,181.9-94.3c23,0,163.8,94.3,163.8,94.3H1440.2z"/>
	<path class="st3" d="M1601,1341.7c48.2-27.9,158.8-94.3,181.9-94.3c23,0,163.8,94.3,163.8,94.3H1601z"/>
	<polygon points="2000,1500 0,1500 0,1271.2 2000,1282.6 	"/>
</g>
<g id="Object">
	<path d="M1253,972.7c-12.9,0-25.3,1.7-37.2,5l-0.2-0.3c0,0-14.9-27.2-16.1-28.4c-1.2-1.2-6.9,0.9-12.1,4.9c0,0-5.6-11.7-5.6-12.2
		c0-0.5,3.9-26.8,3.9-27.9c0-1.1-8-1.4-8-1.4s7.8-42.7,7.8-44.1c0-1.4,14.7-15.2,14.7-15.9s-5.2-6.3-5.2-7.2c0-1,4.8-1.2,10.4-8.5
		c4.5,0,20.8-2.4,23.5-8c0,0,13.6-4.6,12.4-12.5c-1.2-7.9-13.6-7.8-28.9-7.4c19.5-31.1,1.8-64.2-18-89.4
		c-19.8-25.2-54.9-51.2-75.5-58.1c-20.6-6.9-56.8-34.5-76.6-44.5c-19.8-10.1-64.6-17.7-89.5-24.2c-24.9-6.5-45.3,2.3-56.1,22.2
		c0,0-6.2,1.2-8.9-0.3c0,0,1.9-1.1,3.3-2.4c0,0-0.5-0.5-3.3-1.4c0,0,2.8,0,5.2-2.4c-1.1-1.1-14.2-7.1-27.2-2.7c0,0-2.3-6.2-1.7-17.4
		c0.6-11.2-9.1-20.8-12-23.6c-2.9-2.9-15.4-3.2-24.2,0c-22.7,8.2-48.2,20.6-58.2,61.1c-10.1,40.5,9.2,62.1,21.2,70.6
		c12,8.5,45.7,7.5,45.7,7.5s6.8,6.8,8,6.8s6.2-6,7.7-6.9c1.5-0.9,8,0.9,9.6,0.9c1.6,0,0.7-1.1,10.2-2.5c0,0-1,21.9,0.4,28.5
		c0,0-3.3,4.3-8.5,14.4c-13.1,1.9-51.5,13.6-109.4,13.6c-9.2,0-22.7-12.7-29-18c-6.3-5.3-24.3-6.2-34-6.6s-27.6,4.8-27.6,7.9
		c0,3.2,1.7,8,12.8,7.1c-2.3,2.3-4,8.6,5,11.9c-1.7,2.7-6.3,11.3,8.9,10.7c-3.5,3.5-4.2,11.7,8.2,11.7c-3.3,5.5,2,12.5,12.4,12.5
		c0,0,13.6,6.2,18.2,10.8c4.6,4.6,6.6,8.8,31,7.6c0,0,44.8,19.9,44.8,18.6s-22.4-14.1-28.1-17.4c8.2,0.9,51.3,2.5,60,4.1
		c8.7,1.6,14.5,7.4,9.7,12.2c-4.8,4.8-36.8,14.6-49.7,13.4c-13-1.2-40.4-17.9-43.3-17.9s-12,6.9-13.2,8.1
		c-1.2,1.2-2.3,17.7-2.3,19.2c0,1.4-4.2,1.2-4.2,2.6c0,1.4,44.3,20.3,45,19.6c0.6-0.6-31.9-19.8-31.9-19.8s-0.1-7.8,0.9-8.8
		c0.9-0.9,2.3-1.3,3.5-3.8c4.5,0,10.9,6.3,25.9,11.4c15,5,36.4,6.9,51.3,0c10.5-4.9,27.3-9.8,38.8-9.8c5.3,0,11.2,1.6,16,3.2
		c-4.6,10.2-7.1,25.1-8.3,34.2L858,920.3l-3.1-1.8c0,0,1.6-4.3,4.2-10.9c-1.8-8.8-11.4-4.2-11.4-4.2l-8,19.4h-4.9l-5.1,14.4
		c-19-6.8-39.4-10.5-60.7-10.5c-99.3,0-179.8,80.5-179.8,179.8s80.5,179.8,179.8,179.8c75,0,139.3-46,166.3-111.3
		c0.7,3.9,2.4,7.7,4.9,9.2c5.2,3,22.5,5.3,25.1,5.3c-3.7,7.8,5.1,9.1,8.5,11.1c3.4,2,20,7.6,23.7,6.4c3.7-1.2,29.7-16.2,29.7-16.2
		c3.6,12.2,26,22.7,46.4,22.7c6.7,0,27.3-0.6,52-1.3c25.9,46.4,73.4,77.6,127.7,77.6c82,0,148.6-70.9,148.6-158.5
		S1335.1,972.7,1253,972.7z M1282.5,1158.2c-0.7,1.7-1.6,3.1-2.6,4.5l-4.3-18.1c1.3-1.8,2.4-3.6,3.4-5.4l5.5,4.7
		C1284.9,1148.8,1284.4,1153.8,1282.5,1158.2z M1300.6,1257.5c-10.8,4.6-22.3,7.8-34.3,9.1l1.5-94.6c2.8-0.7,5.2-1.7,7.2-2.8
		l6.1,6.8L1300.6,1257.5z M1283.6,1178.6l51.6,56.8c-9.8,8.8-20.9,16.1-32.9,21.4L1283.6,1178.6z M1230.8,1163.2l12-9.7
		c-0.3,1.2-0.6,2-0.6,2c-7.4,2.1-13.2,16.2-2.8,20.5c0,0,1.2,7.2,1.2,10.9c-3.1,0-9.2,3.1-7.2,13.3c0.2,1.2,0.7,2.3,1.2,3.2
		l-23.5,0.8L1230.8,1163.2z M1209.1,1204.4l-30.8,1l49.3-39.7L1209.1,1204.4z M1134.2,1181c-1.2-3.3-2.4-6.8-3.4-10.2
		c11.5-2,23.9-4.5,36.2-7l-20.2,13.5L1134.2,1181z M1142.2,1180.5l-6.5,4.3c-0.3-0.7-0.6-1.5-0.8-2.2L1142.2,1180.5z M1278.3,1088.7
		l-10.4,10.9l-1.6-103.9c12.2,1.3,23.9,4.5,34.8,9.3L1278.3,1088.7z M1302.7,1005.6c12.3,5.6,23.7,13.2,33.6,22.3l-55.6,58.1
		L1302.7,1005.6z M1277.3,1092.2l-4.7,17.2c-1.1-1-2.3-1.9-3.7-2.6l-1-1.7l0-3.1L1277.3,1092.2z M1183.1,1114.7l49.2,1.3
		c0.6,1,1.1,1.9,1.7,2.9l-18,12.1c-18.5,1.6-44,3.7-65.7,5.4C1150.3,1136.4,1175.2,1120.7,1183.1,1114.7z M1234.9,1120.4
		c2.1,3.4,4,6.1,5.5,7.8l0,0l0.6,0.6c0,0,0,0,0,0c0,0-8.6,0.7-21.5,1.8L1234.9,1120.4z M1266.4,1153.9l-0.1,3.1l-1.9-2.1
		C1265.1,1154.6,1265.8,1154.3,1266.4,1153.9z M1282.8,1132c-0.1-0.2-0.2-0.4-0.3-0.7l0.9,0.4L1282.8,1132z M1282.1,1129.3
		c-0.2-2.3-0.8-5.7-2.3-9.4l78.9-65.2c7.4,11.6,13.1,24.4,16.8,38.2l-89.9,37.9L1282.1,1129.3z M1243.5,1109.6l-20.7-48.1
		c9.4,7.1,25.7,34.8,33,45.9C1253,1105.7,1243.5,1109.6,1243.5,1109.6z M1185.2,1113C1185.2,1113,1185.2,1113,1185.2,1113
		c2.7-2.7,4.9-6.1,1.1-11.7l41.5,12.9L1185.2,1113z M1171.6,1162.9c24.3-5,48-10.2,63.8-13.3l-1.2,2.4l-81.9,23.7L1171.6,1162.9z
		 M1237.5,1149.2c2.4-0.5,4.6-0.9,6.6-1.2c0,0.3-0.1,0.7-0.2,1.2l-7.5,2.2L1237.5,1149.2z M1242.8,1151.3l-10.3,8.3l2.9-6.1
		L1242.8,1151.3z M1241.1,1208.3c0.3,0.1,0.5,0.1,0.8,0.2l-17.5,55.4c-12.4-3-24.1-8-34.8-14.6l19.1-39.9
		C1223.3,1208.9,1235.1,1208.5,1241.1,1208.3z M1248.6,1185.2c0,0-1.4-6.1,2.9-10.4c0.3,0,0.6,0.1,0.9,0.1l-3.3,10.6
		C1248.9,1185.4,1248.8,1185.3,1248.6,1185.2z M1263.7,1156.6l2.6,2.9l-0.2,11c-2.3,0.4-4.7,0.6-7.3,0.6
		C1261.3,1167.7,1262.9,1162.2,1263.7,1156.6z M1268,1161.4l5.8,6.4c-1.8,1-3.8,1.8-6,2.3L1268,1161.4z M1276.5,1168.2
		c0.9-0.6,1.7-1.3,2.4-1.9l1.5,6.1L1276.5,1168.2z M1275.4,1166.9l-7.3-8l0.1-6.2c2.1-1.6,4.2-3.8,6-6.2l4.3,17.9
		C1277.5,1165.3,1276.5,1166.2,1275.4,1166.9z M1279.7,1137.7c0.5-1.1,1-2.1,1.4-3.1l0.8-0.3c0.9,2.2,1.6,4.6,2.1,7L1279.7,1137.7z
		 M1283.6,1133.8c1.4,0,2.8,0,4.3-0.1l87.1,37.9c-3.6,12.3-8.8,23.8-15.3,34.4l-73.6-62.9
		C1285.6,1139.8,1284.8,1136.7,1283.6,1133.8z M1292.1,1133.6c30.5-0.5,70.7-1.2,88.6-1.5c-0.1,13.1-1.9,25.8-5.3,37.8
		L1292.1,1133.6z M1288.3,1132l-0.4-0.2l88.2-37.1c3,11.4,4.6,23.4,4.7,35.8C1362,1130.7,1319.2,1131.4,1288.3,1132z M1357.8,1053.3
		l-78.6,65c-1.2-2.6-2.9-5.2-5.1-7.5l5.8-21.2l57.8-60.4C1345.2,1036.3,1352,1044.4,1357.8,1053.3z M1253,995
		c3.9,0,7.7,0.2,11.5,0.6l1.6,105.8l-0.3,0.3l-58.5-97.7C1221.6,998.2,1236.9,995,1253,995z M1190.8,1072.5
		c5.4-9.7,11.6-16.5,11.6-16.5s16,35.4,28.4,57.4l-46.4-14.4c-1.5-1.7-3.5-3.6-6.1-5.7C1178.3,1093.2,1185.4,1082.1,1190.8,1072.5z
		 M1153.6,854.7c2.2,0,5.1,5.9,3.3,17.3c-1.8,11.4-7.2,32.2-7.2,32.2c-18.4-3.1-43.2-4-52.3-3.1
		C1117.4,890.9,1151.4,854.7,1153.6,854.7z M882.6,821.7c0-0.8,2-1.5,3.9-2.9c9.9-0.3,19.1,0.8,25.5,6.3c5.6,4.9,8.7,12.9,9.4,24.6
		c-0.2,1.9-0.5,3.9-0.8,6c-1.4,0-2.6,0.7-3.4,1.6c-2.1-0.4-4.6-0.8-6.8-1.1c2-3.4,3.5-6,3.7-6.5c0.6-1.6,4.3-0.5,5.4-3.7
		c1.1-3.1-7-12.4-12.7-12.4c-5.6,0-10.4,1.7-10.4,1.7S882.6,823.1,882.6,821.7z M888.5,809.3c8.3,1.1,19.2,4.3,26.3,13.1
		c0.5,0.6,1,1.3,1.4,2c-0.6-0.7-1.3-1.3-1.9-1.9c-6.6-5.7-15.5-7.2-25.1-7.2c0.2-0.6,0.3-1.3,0.3-2
		C889.5,812,889.1,810.6,888.5,809.3z M918.8,864.1c0.2,0.1,0.5,0.2,0.7,0.3c-2.5,6.8-5.3,15.7-5.3,15.7c-1,0-2.3-0.1-3.7-0.3
		C913.7,874.5,917.1,867.5,918.8,864.1z M906.8,879.3c-4-0.7-7.7-1.6-7.7-2.5c0-0.8,5.2-10,9.5-17.5c2.2,0.3,5.3,0.8,7.7,1.3
		c0,0.2,0,0.3,0.1,0.5C915.3,863.4,910.6,873.1,906.8,879.3z M892.9,852.9l-6.9,15.5c-0.5,1-1.5,1.6-2.6,1.5
		c2.2-6.8,4.7-13.7,6.5-18.5C891.8,852.4,892.9,852.9,892.9,852.9z M886.6,850.1c0.1,0,0.1,0.1,0.2,0.1c-1.1,2.9-2.5,6.6-3.9,10.7
		C883.9,857,885.1,853.3,886.6,850.1z M854.1,977.6c9.8,6.5,18.8,14.1,26.8,22.6l-78,71.4C814.3,1049.7,839,1003.4,854.1,977.6z
		 M777.1,1115.9l66.1,126c-13.3,7.3-27.7,12.7-42.9,15.9L777,1115.9C777.1,1115.9,777.1,1115.9,777.1,1115.9z M614.3,1106.4
		c0-9,0.8-17.9,2.3-26.5c27.3,4.3,103.5,15.2,142.5,20.8c0,0,0,0.1,0,0.1l0,0l0,0.3c0,0.2-0.1,0.4-0.1,0.5l-0.1,0.9l0,0
		c0,0.4-0.1,0.8-0.1,1.1c0,1.4,0.2,2.7,0.6,4L616,1129.2C614.9,1121.8,614.3,1114.2,614.3,1106.4z M709.5,963.8
		c14.3-5.9,29.6-9.8,45.7-11.2l15.5,136.8l-0.7,1.3c-1.7,0.3-3.3,0.8-4.7,1.7l-0.4-0.4L709.5,963.8z M761.5,1088.3L667,990.2
		c12.1-10.6,25.8-19.3,40.8-25.8L761.5,1088.3z M616.9,1078.2c3-16,8.4-31.2,15.9-45.1l123.8,65.5
		C709.5,1091.9,641.8,1082.1,616.9,1078.2z M760,1109.3c0.1,0.3,0.3,0.6,0.4,0.9l-127.9,69c-7.9-14.8-13.5-31-16.2-48.2L760,1109.3z
		 M766.7,1115.8l-65,129.8c-14.6-7-27.9-16.3-39.5-27.4l101.8-104C764.9,1114.9,765.8,1115.4,766.7,1115.8z M768.3,1116.4
		c0.8,0.2,1.6,0.4,2.5,0.5l-20.4,143c-16.7-2-32.5-6.6-47.1-13.5L768.3,1116.4z M783.4,1110.3c0.7-1.1,1.1-2.3,1.4-3.6l136.9,21.7
		c-2.2,15.4-6.7,30.1-13.1,43.8l-122.3-59L783.4,1110.3z M785.1,1105c0-0.4,0.1-0.9,0.1-1.3c0-0.1,0-0.2,0-0.3
		c44.6-7.9,112.5-19.8,135.8-23.8c1.5,8.7,2.3,17.7,2.3,26.8c0,6.9-0.5,13.6-1.3,20.3L785.1,1105z M788.1,1101.1
		c8.3-4.9,20.8-9.7,20.8-10.6c0-0.5-1.7-1.3-3.9-2.2c30-15.2,84.1-42.6,101.7-51.6c6.5,12.8,11.2,26.6,14,41.2
		C895.4,1082.2,820,1095.5,788.1,1101.1z M802.9,1087.4c-3-1.2-5.9-2.5-5.9-3.6c0-0.3,1.4-3.2,3.7-7.8l81.5-74.5
		c9.3,10.1,17.3,21.4,23.7,33.7C888.1,1044.3,832.6,1072.4,802.9,1087.4z M835,966.8l-58.8,111.9L805,956.2
		C815.4,958.7,825.5,962.3,835,966.8z M803.3,955.8L773,1084.9l-0.9,1.8l-15.2-134.2c3.9-0.3,7.9-0.5,12-0.5
		C780.7,952,792.2,953.3,803.3,955.8z M665.7,991.4l97.7,101.5l0.2,0.6c-1.6,1.3-3,3-3.8,5l-126.2-66.8
		C642.1,1016.4,652.9,1002.9,665.7,991.4z M633.3,1180.7l128.1-69.1c0.4,0.6,0.9,1.1,1.4,1.6L661,1217.1
		C650.1,1206.4,640.7,1194.2,633.3,1180.7z M752.1,1260l20.4-143.1c1,0,1.9-0.2,2.8-0.4l23.3,141.6c-9.6,1.9-19.6,2.9-29.8,2.9
		C763.2,1260.9,757.6,1260.6,752.1,1260z M844.8,1241l-66.1-125.9c1-0.6,2-1.4,2.8-2.2l3.8,1.8l97.4,96.2
		C871.7,1222.8,858.9,1233,844.8,1241z M883.8,1209.6l-93.7-92.6l117.8,56.8C901.6,1186.8,893.4,1198.9,883.8,1209.6z M1008,1127.6
		c-5.3,3.1-9,12-13.5,14.6c-4.5,2.6-10,11-14.8,12.8c-4.9,1.8-11.9,4.3-15,7.4c-2.5,2.5-18.4,1.4-25.6,2.2c6.2-18.2,9.6-37.7,9.6-58
		c0-62.3-31.7-117.2-79.8-149.4c11.6-1.6,22.2,10.9,33.6,22.3c8.5,8.5,64.1,83.4,112.5,138.3C1015.3,1125.2,1012.5,1125,1008,1127.6
		z M981,952.3c0,0.4-4.3,1.4-5.3,1.4c-1.1,0-6.7,4-6.7,4.8c0,0.7,5.5,11.2,5.5,12.1s-4.3,7.2-4.3,8.5s17.6,26.6,21.7,31.7
		c4,5.1,8.2,11.2,6.8,12.6c-1.4,1.4-2.3,5.7-3.3,4.8c-1-1-60.4-71.8-60.4-74.1c0-2.2,10.5-24.5,12.1-28.7c1.6-4.1,6.6-3.9,13.2-6.2
		c6.6-2.2,16.9,0.1,27.3-1.3C975.8,924.8,981,951.9,981,952.3z M1004,858.7c-25.1-10.4-60.7-17.8-63.8-16c-2.5,1.5-11.4,7.6-16,12.7
		c2.5-14.7,0.3-26.5-6.7-35.2c-8.5-10.5-21.9-13.7-31-14.6c-2.1-3.2-4.5-5.6-4.5-5.6c12.8-9.7,28.5-34.3,31.8-40.5
		c3.2-6.3,13-25.6,13-25.6c9.3,11.7,36.8,14.7,53.4,19.8c16.5,5.1,30,2.7,43.7,12.7c13.6,10,44.5,11.8,52.6,22.9
		C1049.1,809,1013,845.7,1004,858.7z M1082.6,1097.9c-1.3,0-20.9-0.8-23.2-0.8s-2.7,0-4.7-4.5c0,0,0-13.9-1.3-22.4c0,0,14-8.1,14-10
		c0-1.9-3.2-16.9-12.7-30.8c1.8-21.6-1.8-49.4-16.6-75.5c0,0,3.7-3.7,5.5-5.5c3.2,5.6,18.8,23,38.7,34.5
		c19.8,11.4,35.4,34.5,35.4,35.4C1117.7,1019.3,1083.9,1097.9,1082.6,1097.9z M1086.4,1208.4c12.2-4.1,21.8-12.4,27.7-21.1
		c2.4,6.9,5.3,13.5,8.6,19.9L1086.4,1208.4z M1100.7,922.2c11.8,0,37.4-0.7,40.8,9.7c1.8,5.5-9.3,37.7-9.3,37.7
		C1123.1,953.7,1109.8,931.3,1100.7,922.2z M1136.4,1186.4l11.2-7.5l85.6-24.8l-3.8,8l-53.9,43.4l-28.8,0.9
		C1142.8,1200.1,1139.3,1193.4,1136.4,1186.4z M1149.9,1211.3c6.4-0.2,12.8-0.4,19.1-0.6l-12.2,9.8
		C1154.4,1217.6,1152.1,1214.5,1149.9,1211.3z M1157.9,1221.8l14-11.3c12.3-0.4,24.2-0.8,34.8-1.2l-18.7,38.9
		C1176.8,1241.2,1166.6,1232.2,1157.9,1221.8z M1226,1264.3l17.5-55.5c4.4,0.5,8.8-1.1,10-4.7c2.1-6.5,1.3-13.5-3-17.4l3.8-12
		c1.1-0.3,2.1-0.9,3-1.8c0.8,0,1.6,0.1,2.4,0.1c2.3,0,4.4-0.2,6.4-0.5l-1.5,94.4c-3.8,0.4-7.7,0.6-11.5,0.6
		C1243.8,1267.3,1234.7,1266.3,1226,1264.3z M1336.4,1234.2l-53.7-59.1l-2.4-10.3c1.8-2,2.9-4.1,3.7-5.9c1.8-4.2,2.5-8.8,2.2-13.4
		l72.5,61.9C1352.5,1217.4,1344.9,1226.4,1336.4,1234.2z"/>
</g>
</svg>
