<svg xmlns="http://www.w3.org/2000/svg" viewBox="0 0 383.6 83.5"><style>.st0{fill:none;stroke:#f2c145;stroke-width:3;stroke-linecap:round;stroke-miterlimit:10}</style><g id="_x33_"><path class="st0" d="M45.1 67.1c0 .2-.9 0-1 0-1.5 0-3 .1-4.5 0-1.8-.1-3.6-.3-5.5-.2-.9.1-1.7.1-2.6.1-1.4-.1-2.7-.2-4.1-.2-1.9 0-3.7-.3-5.6-.2-1 0-2.1-.1-3.1 0-.6 0-1.2.1-1.8 0-.9-.1-1.8 0-2.7 0-.7 0-1.4.1-2.1.1-.1 0-.3.1-.5 0-.3-.1-.4-.6-.5-.9-.3-.7-.3-3.1-.5-3.8-.2-.7-.1-1.5-.1-2.2 0-2.2.3-4.5 0-6.7 0-.3-.1-.6-.1-1 0-.5.1-1 .1-1.5v-3.2c0-1.2-.1-2.3 0-3.5.1-.7.1-1.5.1-2.2 0-.8-.1-1.7-.1-2.5 0-1.2-.2-2.4-.2-3.7 0-.6.1-1.2.1-1.8 0-.4 0-.8.1-1.3.2-1 .1-1.9.2-2.9.1-.8.1-1.6.3-2.4.1-.4.2-.8.2-1.3v-1c0-.7.2-1.3.2-2 0-.4.1-.8.1-1.3 0-.6.1-1.2.1-1.8 0-.3.1-.7.3-.9.3-.4.9-.5 1.3-.6.4-.1.8-.3 1.2-.4.4-.1.7-.1 1.1-.1.3 0 .6-.1 1-.2.7-.1 1.5-.2 2.3-.2 1-.1 2 0 3.1 0 .9 0 1.8.2 2.8.2 1.2 0 2.5.2 3.7.2 1.1 0 2.2.1 3.2-.1.9-.2 1.7 0 2.6 0 .6 0 1.2.3 1.9.3.8 0 1.5.2 2.2.3h2.3"/><path class="st0" d="M11 54.8c.2.2.4.1.6.2.3 0 .7.2 1 .2.9 0 1.8-.1 2.6 0 .7 0 1.3.2 2 .1.7 0 1.3-.1 2-.1h1.4c1.1-.2 2.3-.1 3.4-.3.4-.1.9 0 1.3 0 .7 0 1.4-.3 2.1-.3h1.7c.6 0 1.1-.2 1.6-.2s3.2-.2 3.3.2m21.5 12.3c-.1-.3-.1-.5-.3-.9-.5-1-.6-2.1-.6-3.2v-4c.1-1.8.5-3.5.5-5.3 0-1.7-.1-3.5 0-5.2 0-1.5.2-3 .2-4.5v-2.1c.1-.9.3-1.7.3-2.6v-9c0-1.1-.2-2.1-.2-3.2 0-.8.2-1.5.2-2.3v-6.7c0-.2-.1-.5.2-.6.1-.1.7-.2.9-.2h.9c.5-.1.9-.2 1.4-.3 1.7-.4 3.4-.8 5.2-.8 1.6 0 3.3-.2 4.9-.1.7 0 1.3.2 2 .2.8 0 1.6-.1 2.4-.2.7 0 1.2-.1 1.8.2.3.1.6.4.9.4.8.2 1.7 0 2.5.1.7.1 1.4.3 2.1.5.3.1.5.2.7.3.7.4 1.5.6 2.1 1 .7.4 1.3 1.1 1.9 1.7.6.7 1.4 1.4 1.9 2.2.6 1 .5 2 .4 3.1-.1 1.1-.5 2.5-1.4 3.2-.3.3-.9.4-1.3.6-.8.4-1.6.7-2.4.9-.4.1-.9.3-1.3.4-.9.3-1.9.3-2.8.4-1.5.2-3 .3-4.5.5-1.7.1-3.5-.1-5.2.1-1.6.1-3 .7-4.6.6h-2.9c-1 0-2.1.2-3.1.2h-1.1c-.2 0-.7-.1-.6.3"/><path class="st0" d="M76.6 31.7c.1 0 .1-.1.2-.1.1.2.2.5.2.7.3 1.1.7 2.2.9 3.3.6 2.6 1.2 5.2 2.1 7.7.4 1 .7 2 1.1 3 .4 1.3 1.1 2.4 1.5 3.6.2.7.2 1.5.5 2.2.3.9.6 1.6.8 2.5.3 1.3.8 2.6 1.1 3.9.2.8.4 1.7.6 2.5.1.5.4.9.5 1.4v.5c0 .2.2.4.2.7v.6c0 .2.2.3.2.5 0 .1 0 .3.1.5.1.4.3 1.6.7 1.7m13.2 0c-.1-.3-.1-.5-.3-.9-.5-1-.6-2.1-.6-3.2v-4c.1-1.8.5-3.5.5-5.3 0-1.7-.1-3.5 0-5.2 0-1.5.2-3 .2-4.5v-2.1c.1-.9.3-1.7.3-2.6v-9c0-1.1-.2-2.1-.2-3.2 0-.8.2-1.5.2-2.3v-6.7c0-.2-.1-.5.2-.6.1-.1.7-.2.9-.2h.9c.5-.1.9-.2 1.4-.3 1.7-.4 3.4-.8 5.2-.8 1.6 0 3.3-.2 4.9-.1.7 0 1.3.2 2 .2.8 0 1.6-.1 2.4-.2.7 0 1.2-.1 1.8.2.3.1.6.4.9.4.8.2 1.7 0 2.5.1.7.1 1.4.3 2.1.5.3.1.5.2.7.3.7.4 1.5.6 2.1 1 .7.4 1.3 1.1 1.9 1.7.6.7 1.4 1.4 1.9 2.2.6 1 .5 2 .4 3.1-.1 1.1-.5 2.5-1.4 3.2-.3.3-.9.4-1.3.6-.8.4-1.6.7-2.4.9-.4.1-.9.3-1.3.4-.9.3-1.9.3-2.8.4-1.5.2-3 .3-4.5.5-1.7.1-3.5-.1-5.2.1-1.6.1-3 .7-4.6.6h-2.9c-1 0-2.1.2-3.1.2h-1.1c-.2 0-.7-.1-.6.3"/><path class="st0" d="M121.6 31.7c.1 0 .1-.1.2-.1.1.2.2.5.2.7.3 1.1.7 2.2.9 3.3.6 2.6 1.2 5.2 2.1 7.7.4 1 .7 2 1.1 3 .4 1.3 1.1 2.4 1.5 3.6.2.7.2 1.5.5 2.2.3.9.6 1.6.8 2.5.3 1.3.8 2.6 1.1 3.9.2.8.4 1.7.6 2.5.1.5.4.9.5 1.4v.5c0 .2.2.4.2.7v.6c0 .2.2.3.2.5 0 .1 0 .3.1.5.1.4.3 1.6.7 1.7m63.2 0c-.1-.3-.1-.5-.3-.9-.5-1-.6-2.1-.6-3.2v-4c.1-1.8.5-3.5.5-5.3 0-1.7-.1-3.5 0-5.2 0-1.5.2-3 .2-4.5v-2.1c.1-.9.3-1.7.3-2.6v-9c0-1.1-.2-2.1-.2-3.2 0-.8.2-1.5.2-2.3v-6.7c0-.2-.1-.5.2-.6.1-.1.7-.2.9-.2h.9c.5-.1.9-.2 1.4-.3 1.7-.4 3.4-.8 5.2-.8 1.6 0 3.3-.2 4.9-.1.7 0 1.3.2 2 .2.8 0 1.6-.1 2.4-.2.7 0 1.2-.1 1.8.2.3.1.6.4.9.4.8.2 1.7 0 2.5.1.7.1 1.4.3 2.1.5.3.1.5.2.7.3.7.4 1.5.6 2.1 1 .7.4 1.3 1.1 1.9 1.7.6.7 1.4 1.4 1.9 2.2.6 1 .5 2 .4 3.1-.1 1.1-.5 2.5-1.4 3.2-.3.3-.9.4-1.3.6-.8.4-1.6.7-2.4.9-.4.1-.9.3-1.3.4-.9.3-1.9.3-2.8.4-1.5.2-3 .3-4.5.5-1.7.1-3.5-.1-5.2.1-1.6.1-3 .7-4.6.6h-2.9c-1 0-2.1.2-3.1.2h-1.1c-.2 0-.7-.1-.6.3"/><path class="st0" d="M216.6 31.7c.1 0 .1-.1.2-.1.1.2.2.5.2.7.3 1.1.7 2.2.9 3.3.6 2.6 1.2 5.2 2.1 7.7.4 1 .7 2 1.1 3 .4 1.3 1.1 2.4 1.5 3.6.2.7.2 1.5.5 2.2.3.9.6 1.6.8 2.5.3 1.3.8 2.6 1.1 3.9.2.8.4 1.7.6 2.5.1.5.4.9.5 1.4v.5c0 .2.2.4.2.7v.6c0 .2.2.3.2.5 0 .1 0 .3.1.5.1.4.3 1.6.7 1.7m-61.9-49.2h-2.2c-1.4 0-2.9.1-4.3-.1-.5-.1-1-.1-1.5 0-.4.1-.9.3-1.3.4-.6.1-1 .3-1.5.7l-.6.6c-.2.2-.5.3-.7.5-.5.5-1 1.2-1.4 1.8-.3.4-.5 1-.7 1.5-.8 1.9-1.4 3.7-1.7 5.7-.4 3-.6 6-.6 9 0 2.7-.1 5.4 0 8 .1 1.6.3 3.2.3 4.9 0 .6 0 1.2.1 1.7.1.6 0 1.2.1 1.8.2 2.2 1.7 3.9 2.4 5.9.2.7.6 1.5 1.2 1.9 1.2.9 2.6.8 4 1.1.9.2 1.8.4 2.7.4.5 0 1 .1 1.5.1.6 0 1.1 0 1.7.1.7.2 1.4.2 2.2.3.4 0 .8.1 1.2.1.6 0 1.2-.1 1.7 0 .4.1.5.2 1 .2.4 0 .8-.1 1.3-.1 1.1-.1 2.2-.5 3.4-.7 1-.2 1.9-.5 2.8-1 .4-.3.9-.4 1.3-.7.4-.4.7-1 1.1-1.4.3-.3.6-.6.8-1 .2-.5.5-1.1.6-1.6.2-.5.3-1 .4-1.4.2-.5.1-1 .2-1.5.1-.7.3-1.3.4-2 .1-.9 0-1.8.1-2.7.1-.6.1-1.2.2-1.8 0-1 .1-1.9.1-2.9 0-1.7.1-3.4-.1-5.1-.1-.7 0-1.4-.1-2.2 0-.8-.2-1.5-.1-2.3 0-1.2.1-2.5 0-3.7-.1-1.5 0-3.1-.3-4.6-.1-.7-.1-1.4-.4-2.1-.5-.9-1.2-1.7-1.8-2.5-.5-.6-.9-.9-1.5-1.3-.5-.4-1.1-.8-1.6-1.2-.3-.3-.7-.5-1-.8-.2-.2-.3-.4-.5-.5-.2-.1-.3-.1-.4-.1-.5-.1-.9-.4-1.3-.6-.3-.1-.6-.2-.9-.2h-.6c-.3 0-.5-.1-.8-.1-.6-.1-1 .2-1.5.1h-1.2c-.6 0-1.4-.2-2.2-.6zm112.7.7c0 .8-.1 1.7-.1 2.5-.1 2.1-.1 4.1-.1 6.2 0 2.1.1 4.2-.1 6.3-.1 1.3-.3 2.7-.3 4v2c-.2 3-.3 6.2.2 9.2.1.6 0 1.2.2 1.8.1.3.3.5.4.8.2.5.2 1 .5 1.5.2.3.4.4.6.6.7.6 1.7.6 2.6.7.7.1 1.2.3 1.9.3.6 0 1.1 0 1.7.1 1.1.1 2.2.1 3.3.1 1 0 2.1-.1 3.1-.2 1.7-.2 3.5 0 5.2-.1.5 0 1.1-.3 1.6-.3.3 0 .8.1 1.1 0"/><path class="st0" d="M294.7 66.7v-1.3c0-.5-.1-1.1-.1-1.6 0-.9.1-1.7.2-2.6.1-2.6 0-5.3 0-7.9 0-5.4-.1-10.8-.1-16.2v-4.4c0-1.2.1-2.5.1-3.7 0-1.1.1-2.2-.1-3.3-.1-.7-.2-1.4-.2-2.1 0-.6-.2-1.1-.3-1.7-.1-.5-.1-1.1-.1-1.6 0-.4-.1-.7-.1-1.1 0-.3.1-.7 0-.9m57.5.1c0 .8-.1 1.7-.1 2.5-.1 2.1-.1 4.1-.1 6.2 0 2.1.1 4.2-.1 6.3-.1 1.3-.3 2.7-.3 4v2c-.2 3-.3 6.2.2 9.2.1.6 0 1.2.2 1.8.1.3.3.5.4.8.2.5.2 1 .5 1.5.2.3.4.4.6.6.7.6 1.7.6 2.6.7.7.1 1.2.3 1.9.3.6 0 1.1 0 1.7.1 1.1.1 2.2.1 3.3.1 1 0 2.1-.1 3.1-.2 1.7-.2 3.5 0 5.2-.1.5 0 1.1-.3 1.6-.3.3 0 .8.1 1.1 0"/><path class="st0" d="M368.1 66.7v-1.3c0-.5-.1-1.1-.1-1.6 0-.9.1-1.7.2-2.6.1-2.6 0-5.3 0-7.9 0-5.4-.1-10.8-.1-16.2v-4.4c0-1.2.1-2.5.1-3.7 0-1.1.1-2.2-.1-3.3-.1-.7-.2-1.4-.2-2.1 0-.6-.2-1.1-.3-1.7-.1-.5-.1-1.1-.1-1.6 0-.4-.1-.7-.1-1.1 0-.3.1-.7 0-.9m-43.1.4c-1.3 0-2.2 1.3-2.8 2.3-1.8 2.8-3.2 5.9-4.3 9-.5 1.5-1.1 2.9-1.8 4.3-.5 1.2-1.1 2.4-1.4 3.7-.1.8-.4 1.6-.5 2.4-.1.4 0 .8-.1 1.3-.1.4-.3.8-.4 1.2-.4 1-.2 2.1.2 3.1.4 1.1.7 2.3 1 3.5.2.8.3 1.5.7 2.3.3.6.6 1.2.9 1.9.4 1 1.1 1.9 1.7 2.8.5.8.9 1.5 1.5 2.2.2.3.3.5.5.9.2.5.4.6.8 1 .3.3.4.6.6.9.3.4.7.7 1.1 1.1.8.9 1.4 2.2 2.7 2.5.8.2 1.7-.3 2.5-.5 1.2-.4 2.3-1 3.2-2 .8-.9 1.5-2 2.3-3 .5-.6 1.1-1.1 1.5-1.8.2-.3.3-.7.4-1 .3-.9 1-1.7 1.4-2.6.4-.9.7-1.7 1.2-2.5.4-.7.5-1.3.8-2 .2-.7.4-1.3.5-2 .3-1.7.5-3.3.5-5 0-2.4-1-4.5-1.8-6.7-.3-.8-.5-1.6-.9-2.3-.3-.6-.7-1.1-1-1.7-.9-1.5-1.5-3.1-2.2-4.7-.5-1.1-1-2.2-1.8-3.1-.2-.3-.5-.5-.7-.7-.3-.3-.3-.7-.5-1-.3-.6-.8-.8-1.1-1.4-.3-.5-.4-.7-.9-.9-.2-.1-.5-.1-.7-.3-.1-.1-.2-.3-.3-.4-.1-.2-.2-.2-.4-.3-.8-.7-1.5-1-2.4-.5z"/></g></svg>