<svg xmlns="http://www.w3.org/2000/svg" viewBox="0 0 383.6 83.5"><style>.st0{fill:none;stroke:#f2c145;stroke-width:3;stroke-linecap:round;stroke-miterlimit:10}</style><g id="_x35_"><path class="st0" d="M40.7 17.6h-4.1c-2.5 0-4.9-.3-7.4-.3h-5.6c-1.1 0-2.1.3-3.1.3-.6 0-1.2-.1-1.8.1-1.2.2-2.5.7-3.7.8-.8 0-1-.1-1.4.6-.2.3-.4.7-.5 1.1-.4 1.6-1.1 3.1-1.4 4.8-.2.8 0 1.7 0 2.6v5.1c0 2.2.3 4.4.3 6.7v7.1c0 1.9.2 3.9-.1 5.8-.1.6-.3 1.3-.2 1.9 0 .4.2.8.2 1.2.2 1.4.1 3 .1 4.4v2.9c0 .7-.3 3.1.3 3.4.2.1.9 0 1.1.1.6.1 1.3.1 2 .2.9.2 1.7.2 2.6.4 1.1.2 2.2 0 3.3.1 1.3.2 2.5.1 3.8.2 1.4.2 2.8.3 4.3.3h12.9c.6 0 1-.1 1.5-.2.8-.2 1.2 0 1.9-.3"/><path class="st0" d="M12.3 55.9h-.2 2.2c.9 0 1.7-.3 2.6-.4.8 0 1.7.1 2.5-.1 1.1-.2 2.3-.2 3.5-.4 2.1-.5 4.5-.2 6.7-.2H32c1 0 1.4.4 2.4.3m20.5 11.6V41.8c0-3.4.2-6.8-.3-10.1s-.3-6.6-.4-9.9c0-1-.8-2.6-.3-3.6.5-.9 2.2-1.2 3.1-1.4 2.4-.5 4.7-.8 7.2-.8h3.9c1.6 0 3 .4 4.5.6.8.1 1.6.1 2.4.3.7.2 1.2.5 1.9.6 1 .2 2 .2 3 .2 2 .1 3.9 1.1 5.3 2.3.8.7 1.4 1.9 1.6 2.9.2.9.4 3.6-.3 4.4-.3.4-1 .6-1.4.9-.7.4-1.4.9-2.2 1.2-.5.2-.9.2-1.4.2-.7.1-1.1.5-1.7.6-1 .3-2.2-.1-3.3.1-1.1.2-2.3.5-3.5.6-.8.1-1.5-.1-2.3.1-1.1.2-2 .3-3 .3-1.1 0-2.2-.1-3.3.1-.9.2-1.9.1-2.8.3-.7.1-1.2.4-1.9.4-1.1 0-3-.4-3.8.4"/><path class="st0" d="M76.1 31c0 1 .5 1.9.7 2.9.3 1.3.7 2.6 1.3 3.8.5 1 .4 2.1.7 3.1.2 1 .4 2 .4 3.1 0 .8.4 1.7.6 2.4.6 1.8 1.1 3.7 1.7 5.5.3.9.4 1.9.6 2.9.3 1.1.7 2 1 3.1.4 1.3.6 2.6 1.2 3.8.3.5.2 1.1.4 1.6.1.3.4.5.5.9.1.4.2.7.3 1.1.1.3.4.8.5 1.1m15.1.8V42.2c0-3.4.2-6.8-.3-10.1s-.3-6.6-.4-9.9c0-1-.8-2.6-.3-3.6.5-.9 2.2-1.2 3.1-1.4 2.4-.5 4.7-.8 7.2-.8h3.9c1.6 0 3 .4 4.5.6.8.1 1.6.1 2.4.3.7.2 1.2.5 1.9.6 1 .2 2 .2 3 .2 2 .1 3.9 1.1 5.3 2.3.8.7 1.4 1.9 1.6 2.9.2.9.4 3.6-.3 4.4-.3.4-1 .6-1.4.9-.7.4-1.4.9-2.2 1.2-.5.2-.9.2-1.4.2-.7.1-1.1.5-1.7.6-1 .3-2.2-.1-3.3.1-1.1.2-2.3.5-3.5.6-.8.1-1.5-.1-2.3.1-1.1.2-2 .3-3 .3-1.1 0-2.2-.1-3.3.1-.9.2-1.9.1-2.8.3-.7.1-1.2.4-1.9.4-1.1 0-3-.4-3.8.4"/><path class="st0" d="M122.4 31.4c0 1 .5 1.9.7 2.9.3 1.3.7 2.6 1.3 3.8.5 1 .4 2.1.7 3.1.2 1 .4 2 .4 3.1 0 .8.4 1.7.6 2.4.6 1.8 1.1 3.7 1.7 5.5.3.9.4 1.9.6 2.9.3 1.1.7 2 1 3.1.4 1.3.6 2.6 1.2 3.8.3.5.2 1.1.4 1.6.1.3.4.5.5.9.1.4.2.7.3 1.1.1.3.4.8.5 1.1m63.8.4V42.2c0-3.4.2-6.8-.3-10.1s-.3-6.6-.4-9.9c0-1-.8-2.6-.3-3.6.5-.9 2.2-1.2 3.1-1.4 2.4-.5 4.7-.8 7.2-.8h3.9c1.6 0 3 .4 4.5.6.8.1 1.6.1 2.4.3.7.2 1.2.5 1.9.6 1 .2 2 .2 3 .2 2 .1 3.9 1.1 5.3 2.3.8.7 1.4 1.9 1.6 2.9.2.9.4 3.6-.3 4.4-.3.4-1 .6-1.4.9-.7.4-1.4.9-2.2 1.2-.5.2-.9.2-1.4.2-.7.1-1.1.5-1.7.6-1 .3-2.2-.1-3.3.1-1.1.2-2.3.5-3.5.6-.8.1-1.5-.1-2.3.1-1.1.2-2 .3-3 .3-1.1 0-2.2-.1-3.3.1-.9.2-1.9.1-2.8.3-.7.1-1.2.4-1.9.4-1.1 0-3-.4-3.8.4"/><path class="st0" d="M217.4 31.4c0 1 .5 1.9.7 2.9.3 1.3.7 2.6 1.3 3.8.5 1 .4 2.1.7 3.1.2 1 .4 2 .4 3.1 0 .8.4 1.7.6 2.4.6 1.8 1.1 3.7 1.7 5.5.3.9.4 1.9.6 2.9.3 1.1.7 2 1 3.1.4 1.3.6 2.6 1.2 3.8.3.5.2 1.1.4 1.6.1.3.4.5.5.9.1.4.2.7.3 1.1.1.3.4.8.5 1.1m-61.7-48.4c-.5 0-.6-.1-1.1-.2-.5-.1-1.1 0-1.6-.1-2.1-.4-3.6.2-5.6.5-.8.2-1.6.3-2.4.6-.5.2-.9.5-1.4.8-.8.5-1 1.1-1.6 1.9-.7 1-1.2 2-1.5 3.2-.2 1.1-.4 2.1-.7 3.2-.3 1.4-.1 2.8-.2 4.2-.1 1.8-.4 3.4 0 5.2.2 1.4.1 2.9.1 4.2V54c0 .5.2 1 .3 1.5.1.4.1.6.2.9.1.3.3.7.4 1.1.2.6.4 1.3.7 1.9.4.7.9 1.2 1.5 1.7.7.5 1.5.9 2.2 1.4.7.5 1.5.7 2.3 1 .9.3 1.5.7 2.4.7.7 0 .9.2 1.5.3.6.1 1.2-.1 1.8 0 .6.1 1.1.2 1.8.2 1.6 0 3 .3 4.6.3h2.9c.7 0 1.2 0 1.9-.2.8-.3 2-.6 2.6-1.2.6-.5.9-1.4 1.4-2 .7-.8 1.2-1.7 1.6-2.6.4-1 .7-2.3.8-3.3.1-2 .3-4 .5-6 .1-1.2-.1-2.4.1-3.6.2-1.1.1-2.2.2-3.3 0-.8.3-1.5.3-2.3.1-2.5.3-5 .3-7.5v-4c0-1.1-.3-2.2-.3-3.3 0-1-.8-1.8-1.1-2.7-.2-.6-.4-1.7-1-2.1-.2-.1-.8-.3-1-.4-.4-.1-.7-.1-1-.3-.4-.2-.7-.3-1.1-.3-.3 0-.7 0-1-.1-.9-.2-1.8-.2-2.7-.4-.4-.1-.7-.1-1.1-.2-.3-.1-.7-.1-1.1-.1-.9 0-1.8-.5-2.7-.5h-1.3c-.8 0-.8 0-.9-.3zm113 0c-.9.2-1.2 3-1.3 3.6-.4 3.4-.3 6.8-.3 10.2 0 4-.2 8.1 0 12.1.1 1.2.5 2.3.5 3.5 0 .8.2 1.7.5 2.3.6 1.2 1.9 1.8 3 2.4.2.1.4.4.6.4.6.2 1.5.1 2.1.1.9 0 1.9.1 2.8 0 1.8-.3 3.6-.2 5.4-.2h10.2-.6"/><path class="st0" d="M294.1 17.3c0 3-.3 5.9-.3 8.9 0 1.8.3 3.6.3 5.4 0 1.4.2 2.8.3 4.3.1 4.1 0 8.2 0 12.3v18.3c0 .3-.4.9-.3 1.2m58.5-49.4c-.9.2-1.2 3-1.3 3.6-.4 3.4-.3 6.8-.3 10.2 0 4-.2 8.1 0 12.1.1 1.2.5 2.3.5 3.5 0 .8.2 1.7.5 2.3.6 1.2 1.9 1.8 3 2.4.2.1.4.4.6.4.6.2 1.5.1 2.1.1.9 0 1.9.1 2.8 0 1.8-.3 3.6-.2 5.4-.2h10.2-.6"/><path class="st0" d="M368.1 17.3c0 3-.3 5.9-.3 8.9 0 1.8.3 3.6.3 5.4 0 1.4.2 2.8.3 4.3.1 4.1 0 8.2 0 12.3v18.3c0 .3-.4.9-.3 1.2m-42.3-48.3c.4-1.2-2.6.3-2.9.5-.3.2-.6.3-.8.5-.4.3-.6.7-.9 1.1-.2.2-.4.3-.7.5-.7.6-.8 1.2-1.2 2.1-.2.6-.6 1.1-.8 1.7-.4 1-.5 2.2-.8 3.2-.6 1.9-1.3 3.7-1.8 5.6-.5 1.7-1.3 3.3-1.8 5-.4 1.4-.6 2.8-1.1 4.1-.4 1.3-.4 2.6-.3 3.9 0 .7.5 1.3.8 1.9.2.4.6.7.8 1.2.4.7.5 1.1 1 1.7.7.8 1.2 1.8 1.7 2.7.5 1 1.2 1.9 1.7 2.9.4.7.7 1.3 1.2 1.9.2.2.5.4.7.6.5.5.5 1.2 1 1.7 1 .9 2 1.8 3.4 2.2.6.2 1.4 0 2 0 .8 0 1.2-.2 1.9-.6.8-.4 1.1-1.2 1.6-1.8 1.6-1.9 2.4-4 3.5-6.2.9-1.8 1.6-3.7 2.4-5.4.2-.4.2-.9.5-1.3.2-.3.4-.4.5-.7.3-.7.4-1.6.7-2.4.2-.5.5-1 .6-1.5.2-.5 0-1.1.1-1.7.3-1.5.3-2.8-.3-4.2-.1-.2-.1-.3-.3-.5-.4-.8-.6-1.4-.9-2.3-.5-1.5-1.4-2.8-2.1-4.2-.7-1.5-1.8-2.8-2.7-4.2-.6-.9-1.3-1.9-2.1-2.7-1-1-1.6-2.3-2.4-3.4-.4-.5-.7-.7-1.2-1-.7-.4-1-.7-1-.9z"/></g></svg>