<svg xmlns="http://www.w3.org/2000/svg" viewBox="0 0 383.6 83.5"><style>.st0{fill:none;stroke:#f2c145;stroke-width:3;stroke-linecap:round;stroke-miterlimit:10}</style><g id="_x34_"><path class="st0" d="M40.9 17.6c-.7 0-1.4.2-2.1.2h-2.6c-1.2 0-2.3.1-3.5.1-2 0-4-.2-6-.2-1.8 0-3.6 0-5.4-.3-1.2-.2-2.4-.1-3.5-.1-.6 0-1.2-.1-1.8.1-.4.1-.9.1-1.3.2-.5.2-1.1.4-1.6.8-.1.1-.3.2-.4.3-.3.2-.5.5-.6.8-.7 1.3-1 2.9-1.3 4.3-.2.8-.3 1.5-.3 2.4v3.2c.1 1.3.3 2.6.5 3.9.2 1.4.3 2.8.5 4.3.2 1.3.4 2.5.5 3.8.1 1.2.1 2.4.1 3.6v8.4c0 1.7 0 3.4.1 5.1.1 1.5.2 3 .3 4.4 0 .3.1.7 0 1 0 .2-.2.4-.2.6-.1.3 0 .6 0 .9 0 .4-.1.8.2 1.1.2.2.5.3.8.3.5.1 1 .1 1.5.2 1.7.2 3.5-.1 5.2-.2 1.8-.1 3.6.2 5.4.3 1.9.2 3.9.5 5.9.4 2.8-.1 5.7 0 8.5-.1 1.8 0 3.5-.2 5.3-.2"/><path class="st0" d="M12.3 55.2v.1h3.8c.9-.1 1.8-.2 2.7-.2 2.1-.1 4.2 0 6.3 0 1 0 2 .1 3.1.1.9 0 1.9-.2 2.8-.2.9 0 1.8.2 2.7-.2M54.8 67c0-.5.1-.7.2-1.2.2-.8.1-1.7.1-2.5V46.9c0-1.1.1-2.2 0-3.3-.1-.7-.3-1.4-.4-2.1-.3-1.9 0-3.9 0-5.7 0-1.9-.3-4.1.1-6 .5-2.3.6-4.6.6-7v-3.6c0-.8-.3-1.7.6-2 .4-.1.7-.2 1.1-.5.8-.5 1.3-.5 2.2-.5h2.8c1.4 0 2.5.2 3.9.4 1.3.2 2.7.1 4 .1 1.2 0 2.2 0 3.4-.2 2.5-.5 4.7-.1 7 1 1 .5 2 .8 2.9 1.2 1.2.5 1.4.9 2 2.1.5.8 1.2 1.6 1.3 2.5.1.4 0 .8 0 1.2 0 .8.1 1.6 0 2.4-.3 2-1.9 2.8-3.6 3.4-1.4.5-2.8.6-4.3.8-1.6.2-3 .9-4.6 1-1.4 0-2.8-.1-4.1 0-1.1 0-2.1.3-3.1.3h-4.2c-1.3 0-2.7-.2-3.9.1-.6.1-1.1.2-1.7.2-.4 0-1.3-.2-1.2.5"/><path class="st0" d="M76.4 31.5c0 .4.1.7.2 1 .2.8.3 1.6.5 2.3.3 1.4.8 2.9 1.3 4.3.4 1.3.6 2.7 1 4 .3 1.1.6 2.2.9 3.4.2.9.3 1.8.5 2.7.2.9.7 1.7 1 2.5.2.6.5 1.3.5 2 0 .4.1.8.2 1.2.3 1 .6 1.9 1.1 2.9.1.3.3.7.3 1 .1.3.1.6.2.9.3.7.7 1.4 1 2.2.2.4.1.8.2 1.2.1.3.1.6.2.8.1.2.2.2.2.4s0 .2.1.4c.2.6.4 1.1.6 1.7.1.2.1.4.1.6m14.3 0c0-.5.1-.7.2-1.2.2-.8.1-1.7.1-2.5V46.9c0-1.1.1-2.2 0-3.3-.1-.7-.3-1.4-.4-2.1-.3-1.9 0-3.9 0-5.7 0-1.9-.3-4.1.1-6 .5-2.3.6-4.6.6-7v-3.6c0-.8-.3-1.7.6-2 .4-.1.7-.2 1.1-.5.8-.5 1.3-.5 2.2-.5h2.8c1.4 0 2.5.2 3.9.4 1.3.2 2.7.1 4 .1 1.2 0 2.2 0 3.4-.2 2.5-.5 4.7-.1 7 1 1 .5 2 .8 2.9 1.2 1.2.5 1.4.9 2 2.1.5.8 1.2 1.6 1.3 2.5.1.4 0 .8 0 1.2 0 .8.1 1.6 0 2.4-.3 2-1.9 2.8-3.6 3.4-1.4.5-2.8.6-4.3.8-1.6.2-3 .9-4.6 1-1.4 0-2.8-.1-4.1 0-1.1 0-2.1.3-3.1.3h-4.2c-1.3 0-2.7-.2-3.9.1-.6.1-1.1.2-1.7.2-.4 0-1.3-.2-1.2.5"/><path class="st0" d="M122.4 31.5c0 .4.1.7.2 1 .2.8.3 1.6.5 2.3.3 1.4.8 2.9 1.3 4.3.4 1.3.6 2.7 1 4 .3 1.1.6 2.2.9 3.4.2.9.3 1.8.5 2.7.2.9.7 1.7 1 2.5.2.6.5 1.3.5 2 0 .4.1.8.2 1.2.3 1 .6 1.9 1.1 2.9.1.3.3.7.3 1 .1.3.1.6.2.9.3.7.7 1.4 1 2.2.2.4.1.8.2 1.2.1.3.1.6.2.8.1.2.2.2.2.4s0 .2.1.4c.2.6.4 1.1.6 1.7.1.2.1.4.1.6m63.3 0c0-.5.1-.7.2-1.2.2-.8.1-1.7.1-2.5V46.9c0-1.1.1-2.2 0-3.3-.1-.7-.3-1.4-.4-2.1-.3-1.9 0-3.9 0-5.7 0-1.9-.3-4.1.1-6 .5-2.3.6-4.6.6-7v-3.6c0-.8-.3-1.7.6-2 .4-.1.7-.2 1.1-.5.8-.5 1.3-.5 2.2-.5h2.8c1.4 0 2.5.2 3.9.4 1.3.2 2.7.1 4 .1 1.2 0 2.2 0 3.4-.2 2.5-.5 4.7-.1 7 1 1 .5 2 .8 2.9 1.2 1.2.5 1.4.9 2 2.1.5.8 1.2 1.6 1.3 2.5.1.4 0 .8 0 1.2 0 .8.1 1.6 0 2.4-.3 2-1.9 2.8-3.6 3.4-1.4.5-2.8.6-4.3.8-1.6.2-3 .9-4.6 1-1.4 0-2.8-.1-4.1 0-1.1 0-2.1.3-3.1.3h-4.2c-1.3 0-2.7-.2-3.9.1-.6.1-1.1.2-1.7.2-.4 0-1.3-.2-1.2.5"/><path class="st0" d="M217.4 31.5c0 .4.1.7.2 1 .2.8.3 1.6.5 2.3.3 1.4.8 2.9 1.3 4.3.4 1.3.6 2.7 1 4 .3 1.1.6 2.2.9 3.4.2.9.3 1.8.5 2.7.2.9.7 1.7 1 2.5.2.6.5 1.3.5 2 0 .4.1.8.2 1.2.3 1 .6 1.9 1.1 2.9.1.3.3.7.3 1 .1.3.1.6.2.9.3.7.7 1.4 1 2.2.2.4.1.8.2 1.2.1.3.1.6.2.8.1.2.2.2.2.4s0 .2.1.4c.2.6.4 1.1.6 1.7.1.2.1.4.1.6m50.7-48.4c0 .8-.3 1.2-.3 2 0 1.2-.5 2.2-.6 3.4-.1 1-.1 2-.2 3-.3 4.2-.3 8.3-.2 12.5 0 1.8.1 3.7.1 5.5 0 1.2-.2 2.8.1 4 .4 1.7.7 3 2.4 3.7 1.1.4 1.6 1 2.9 1 1.2 0 2.2.3 3.4.3 2.3-.1 4.5-.1 6.8-.2 3-.1 6.1 0 9.1-.2"/><path class="st0" d="M293.9 17.9l.3 12.6c.1 3.1.1 6.1.2 9.2 0 1.5-.1 2.8-.2 4.3s.1 3.1.1 4.6c0 1.1-.3 2.1-.3 3.1 0 1.1.1 2.2.1 3.2 0 1.8.1 3.5.1 5.3 0 2.2.1 4.3.1 6.5m57.9-48.1c0 .8-.3 1.2-.3 2 0 1.2-.5 2.2-.6 3.4-.1 1-.1 2-.2 3-.3 4.2-.3 8.3-.2 12.5 0 1.8.1 3.7.1 5.5 0 1.2-.2 2.8.1 4 .4 1.7.7 3 2.4 3.7 1.1.4 1.6 1 2.9 1 1.2 0 2.2.3 3.4.3 2.3-.1 4.5-.1 6.8-.2 3-.1 6.1 0 9.1-.2"/><path class="st0" d="M367.9 17.9l.3 12.6c.1 3.1.1 6.1.2 9.2 0 1.5-.1 2.8-.2 4.3s.1 3.1.1 4.6c0 1.1-.3 2.1-.3 3.1 0 1.1.1 2.2.1 3.2 0 1.8.1 3.5.1 5.3 0 2.2.1 4.3.1 6.5m-43.2-47.3c-1.3 0-2 0-3.1.8-1.2.9-1.7 2.1-2.5 3.3-1 1.6-1.9 3-2.7 4.7-.4.9-.7 1.9-1 2.8-.4 1.1-1 2.2-1.4 3.4-.8 2.2-1.6 4.4-1.7 6.8 0 1-.4 1.9-.4 3v2.7c0 .7-.1 1.3.3 1.9.3.4.7.5 1 .9.6.7.7 1.5 1 2.3.4.9 1 1.8 1.4 2.7.4.7.7 1.4 1 2.2.4.9.7 1.2 1.3 1.9.5.6.7 1.5 1.2 2.1.4.6.9 1.2 1.4 1.7.6.5 1.2 1.1 1.9 1.4.6.3 1.1.2 1.7.3.4.1.7.3 1.1.4 1.5.3 3.6-.6 4.6-1.7.7-.8 1.2-1.8 1.9-2.6 1.1-1.3 1.6-2.6 2.4-4.1 1-1.8 1.8-3.7 2.7-5.6.4-.9.6-1.8 1-2.7.4-.8.5-1.5.7-2.4.1-.5.5-.9.6-1.4.4-1.5.4-2.9.4-4.4 0-2.2-2-4-3.1-5.8-.6-1-1.4-2-2-3-.4-.6-.6-1.3-1-1.8-.5-.6-.9-.9-1.3-1.6-.4-.7-.5-1.5-1-2.2-.5-.7-.7-1.3-1.1-2-.3-.6-.7-1.4-1.2-1.8-.5-.5-.8-.9-1.3-1.5-.6-1.1-2.6-1.6-2.8-.7zm-159.4-1c-1 0-2.1-.1-3.1 0-1.6.2-3.3.2-4.9.6-.7.1-1.4.2-2.1.6-.9.4-1.8 1-2.4 1.8-1 1.3-1.8 2.7-2 4.3-.1.9-.2 1.8-.4 2.7-.2 1-.4 2-.4 3-.1 2.2-.2 4.4-.3 6.7-.1 1.9-.4 3.8-.5 5.7-.1 1.2-.2 2.3-.1 3.5.1 1.5.4 3 .5 4.5.1 1.1.2 2.3.4 3.4.1.6.1 1.1.2 1.7.1.7.4 1.4.7 2 .3.8.4 1.5.9 2.2.3.3.5.8.9 1.1.4.3.8.5 1.2.7 2.4 1.3 5.1 2.2 7.8 2.5 1.3.1 2.7.1 4.1.1.6 0 1.2-.2 1.8-.3.8-.2 1.5-.3 2.3-.4.8-.2 1.6-.3 2.4-.3.6 0 1.2 0 1.8-.1.8-.2 1.6-.1 2.4-.4 1.3-.5 2.5-1.6 2.9-2.9.3-.9.6-1.8.8-2.7.2-.8.3-1.6.4-2.3.1-.8 0-1.7 0-2.5 0-.6.1-1.1.1-1.7V41.4c0-.8-.1-1.6-.2-2.4v-2.2c0-.8-.1-1.5-.1-2.3 0-1-.1-2.1-.1-3.1 0-.9-.1-1.8-.1-2.7v-1.5c-.1-.8-.3-1.5-.5-2.3-.2-1-.7-1.6-1.2-2.5-.6-.9-1.4-1.9-2.4-2.4-.8-.4-1.7-.4-2.5-.5-.7-.1-1.5-.3-2.2-.4-.5-.1-1.1-.2-1.7-.3-.7-.2-4.3-.4-4.4-.4z"/></g></svg>