<svg xmlns="http://www.w3.org/2000/svg" viewBox="0 0 383.6 83.5"><style>.st0{fill:none;stroke:#f2c145;stroke-width:3;stroke-linecap:round;stroke-miterlimit:10}</style><g id="_x32_"><path class="st0" d="M39.1 18.2c-.2 0-.3-.1-.5-.2-.5-.1-1.2 0-1.7 0h-2.1c-.8 0-1.5-.1-2.2-.2h-1.9c-.7 0-1.4-.1-2.1-.1-1.5-.1-3-.3-4.5-.1-.6.1-1.1.1-1.7.1-.7 0-1.3.1-2 .2h-4.2c-1.4 0-3.2-.3-4.3.8-.3.3-.5.5-.6.9-.1.5-.4 1-.4 1.5-.1 2.5 0 4.9 0 7.4 0 2.8.2 5.6 0 8.4-.1 1.6 0 3.2-.1 4.8 0 .8-.1 1.6-.2 2.4-.1 1-.1 2.1-.2 3.1-.1 1.3-.3 2.6-.3 3.9v4.5c0 1.7.3 3.3.6 4.9.1.7.2 1.3.3 2 0 .5-.1 1.1 0 1.6 0 .4.1 1.1.4 1.4.3.4 1.2.4 1.6.4 1.2.1 2.5.3 3.7.4 2.7.3 5.3.4 7.9.9 1.3.2 2.6.1 3.9.2 1.4.1 2.9 0 4.3.1 1.4 0 2.7.2 4 .2 1.2 0 2.3-.1 3.5-.3 1.2-.2 2.4-.5 3.7-.5"/><path class="st0" d="M10.5 54.4c2.5 0 5 .3 7.6.1 2.7-.2 5.5-.1 8.2-.1h7.4v.1M56 66.6h-.1c-.1-.2 0-.4 0-.6 0-.5-.1-.9-.1-1.4-.2-1.5 0-2.9-.1-4.4-.1-1.5 0-3-.1-4.5-.1-.9-.4-1.8-.4-2.8 0-1 .1-1.9 0-2.9-.2-2.3-.2-4.5.1-6.8.1-1.1.3-2.2.3-3.2 0-.9-.1-1.8-.2-2.8v-2.4c0-1.7-.1-3.5 0-5.2 0-.4.1-.7.2-1 .1-.6 0-1.3 0-1.9v-2.6c0-1.3-.3-2.7-.3-4v-1.2c0-.4-.1-.8.3-.9.5-.2 1.2-.3 1.7-.5 1-.3 2.1-.3 3.2-.5l1.2-.3c.7-.1 1.4-.1 2.1-.1 1.4 0 2.8.2 4.2.1 1.2 0 2.3.1 3.5.2 1.1 0 2.3.1 3.4.1h2.3c.5 0 .9.1 1.4.2.7.2 1.4.1 2 .3.5.1.9.4 1.3.5.4.1.8.3 1.3.5 1.2.5 2.3 1.2 3.3 2.1.4.3.8.6 1 1.1.3.5.7 1.2.8 1.9v.4c0 .9.1 1.8-.1 2.6-.1.5-.4 1-.6 1.4-.2.5-.3.9-.7 1.2-.7.6-1.3.9-2.1 1.2-1.3.4-2.5.3-3.9.3-1 0-2 .1-3 .3-.9.2-1.8.2-2.7.1-1 0-1.9.1-2.9.1-1.2.1-2.4.3-3.6.3-1.2 0-2.4.2-3.5.4-.7.1-1.4 0-2.1 0H62c-.5 0-1-.2-1.5-.2h-3.3c-.2.1-.3.3-.5.3l.1.1"/><path class="st0" d="M76.8 31.4c0 .7.1 1.1.3 1.7.7 2.4 1.2 4.8 1.9 7.3.4 1.3.7 2.7 1.2 4 .4 1.2.7 2.5 1.1 3.7.4 1.1.8 2.2 1.2 3.4.5 1.4 1.1 2.7 1.3 4.1.2 1.1.5 2.2.9 3.3.2.5.6 1.1.7 1.6.1.5.1.8.3 1.3.1.3.2.5.3.8.1.2.2.4.3.5.1.2 0 .5 0 .7.1.6.3 1.1.6 1.6.1.1.2.3.3.4 0 .2 0 .3.1.5s.3.4.3.6m13.4-.3h-.1c-.1-.2 0-.4 0-.6 0-.5-.1-.9-.1-1.4-.2-1.5 0-2.9-.1-4.4-.1-1.5 0-3-.1-4.5-.1-.9-.4-1.8-.4-2.8 0-1 .1-1.9 0-2.9-.2-2.3-.2-4.5.1-6.8.1-1.1.3-2.2.3-3.2 0-.9-.1-1.8-.2-2.8v-2.4c0-1.7-.1-3.5 0-5.2 0-.4.1-.7.2-1 .1-.6 0-1.3 0-1.9v-2.6c0-1.3-.3-2.7-.3-4v-1.2c0-.4-.1-.8.3-.9.5-.2 1.2-.3 1.7-.5 1-.3 2.1-.3 3.2-.5l1.2-.3c.7-.1 1.4-.1 2.1-.1 1.4 0 2.8.2 4.2.1 1.2 0 2.3.1 3.5.2 1.1 0 2.3.1 3.4.1h2.3c.5 0 .9.1 1.4.2.7.2 1.4.1 2 .3.5.1.9.4 1.3.5.4.1.8.3 1.3.5 1.2.5 2.3 1.2 3.3 2.1.4.3.8.6 1 1.1.3.5.7 1.2.8 1.9v.4c0 .9.1 1.8-.1 2.6-.1.5-.4 1-.6 1.4-.2.5-.3.9-.7 1.2-.7.6-1.3.9-2.1 1.2-1.3.4-2.5.3-3.9.3-1 0-2 .1-3 .3-.9.2-1.8.2-2.7.1-1 0-1.9.1-2.9.1-1.2.1-2.4.3-3.6.3-1.2 0-2.4.2-3.5.4-.7.1-1.4 0-2.1 0H107c-.5 0-1-.2-1.5-.2h-3.3c-.2.1-.3.3-.5.3l.1.1"/><path class="st0" d="M121.8 31.4c0 .7.1 1.1.3 1.7.7 2.4 1.2 4.8 1.9 7.3.4 1.3.7 2.7 1.2 4 .4 1.2.7 2.5 1.1 3.7.4 1.1.8 2.2 1.2 3.4.5 1.4 1.1 2.7 1.3 4.1.2 1.1.5 2.2.9 3.3.2.5.6 1.1.7 1.6.1.5.1.8.3 1.3.1.3.2.5.3.8.1.2.2.4.3.5.1.2 0 .5 0 .7.1.6.3 1.1.6 1.6.1.1.2.3.3.4 0 .2 0 .3.1.5s.3.4.3.6m63.4-.3h-.1c-.1-.2 0-.4 0-.6 0-.5-.1-.9-.1-1.4-.2-1.5 0-2.9-.1-4.4-.1-1.5 0-3-.1-4.5-.1-.9-.4-1.8-.4-2.8 0-1 .1-1.9 0-2.9-.2-2.3-.2-4.5.1-6.8.1-1.1.3-2.2.3-3.2 0-.9-.1-1.8-.2-2.8v-2.4c0-1.7-.1-3.5 0-5.2 0-.4.1-.7.2-1 .1-.6 0-1.3 0-1.9v-2.6c0-1.3-.3-2.7-.3-4v-1.2c0-.4-.1-.8.3-.9.5-.2 1.2-.3 1.7-.5 1-.3 2.1-.3 3.2-.5l1.2-.3c.7-.1 1.4-.1 2.1-.1 1.4 0 2.8.2 4.2.1 1.2 0 2.3.1 3.5.2 1.1 0 2.3.1 3.4.1h2.3c.5 0 .9.1 1.4.2.7.2 1.4.1 2 .3.5.1.9.4 1.3.5.4.1.8.3 1.3.5 1.2.5 2.3 1.2 3.3 2.1.4.3.8.6 1 1.1.3.5.7 1.2.8 1.9v.4c0 .9.1 1.8-.1 2.6-.1.5-.4 1-.6 1.4-.2.5-.3.9-.7 1.2-.7.6-1.3.9-2.1 1.2-1.3.4-2.5.3-3.9.3-1 0-2 .1-3 .3-.9.2-1.8.2-2.7.1-1 0-1.9.1-2.9.1-1.2.1-2.4.3-3.6.3-1.2 0-2.4.2-3.5.4-.7.1-1.4 0-2.1 0H202c-.5 0-1-.2-1.5-.2h-3.3c-.2.1-.3.3-.5.3l.1.1"/><path class="st0" d="M216.8 31.4c0 .7.1 1.1.3 1.7.7 2.4 1.2 4.8 1.9 7.3.4 1.3.7 2.7 1.2 4 .4 1.2.7 2.5 1.1 3.7.4 1.1.8 2.2 1.2 3.4.5 1.4 1.1 2.7 1.3 4.1.2 1.1.5 2.2.9 3.3.2.5.6 1.1.7 1.6.1.5.1.8.3 1.3.1.3.2.5.3.8.1.2.2.4.3.5.1.2 0 .5 0 .7.1.6.3 1.1.6 1.6.1.1.2.3.3.4 0 .2 0 .3.1.5s.3.4.3.6m-63-48.8c-1.5-.2-3.1 0-4.7 0-.5 0-1 0-1.5.1-.4.1-.9.1-1.3.2-.9.3-2.1.7-2.8 1.2-.7.5-1.4 1.3-1.8 2.1-.2.4-.3.9-.5 1.4-.3.8-.8 1.5-1.1 2.3-.2.7-.5 1.3-.6 2-.2.8-.5 1.5-.7 2.2-.2.9-.2 1.8-.3 2.7 0 1.2-.2 2.3-.2 3.5 0 2.4-.2 4.8.1 7.2.1 1.2 0 2.5.2 3.7.1.5.2 1 .2 1.5v1.6c0 1.3-.1 2.6 0 3.8.1 1.1.2 2.2.6 3.2.2.7.5 1.4.7 2.1.1.4.3.7.6 1.1.2.3.5.5.8.7.3.2.5.4.8.6.4.2.8.3 1.1.6.3.3.3.5.6.6 1 .4 2.1.6 3.2.8.5.1 1 .4 1.5.5.5.1 1.1.2 1.6.3.8.1 1.7 0 2.5 0h1.6c.6 0 1.2-.2 1.9-.2.9 0 1.8-.2 2.7-.3 1-.1 2 0 3-.2.7-.1 1.3-.1 1.9-.4.5-.2 1-.3 1.4-.5.3-.2.6-.4.8-.6l1.2-.9c.2-.2.4-.6.6-.9.3-.4.4-.8.6-1.3.2-.5.5-1 .6-1.6.1-2.6.7-5.1.7-7.7V28c-.1-.7-.3-1.3-.6-2-.2-.5-.3-1-.5-1.5-.3-.6-.7-1.1-1.1-1.7-.2-.3-.3-.6-.5-.9-.3-.4-.6-.7-.9-1-.1-.2-.3-.5-.5-.7l-.6-.3c-.1-.1-.3-.3-.5-.4-.2-.1-.5-.2-.8-.3-.4-.1-.7-.1-1.1-.1-.5 0-.9-.1-1.3-.2h-1.3c-.4 0-.7-.1-1.1-.1-.4-.1-4.7-.6-5.2-.7zm114.2 1.3c0 .3 0 .6-.1.9-.1.6-.1 1.3-.2 1.9-.1.9-.2 1.9-.3 2.8-.3 2.3-.9 4.5-1 6.8-.1 3 0 5.9.2 8.9 0 1.1.1 2.1.2 3.2.1.7.3 1.5.3 2.2v1c.1.4.2.7.3 1 .3.7.2 1.6.6 2.3.3.4.5.9.7 1.3.2.3.4.9.8 1.1.3.2.6.2.8.4.5.3.8.9 1.3 1.2.3.2.7.1 1 .1.6 0 1.1.1 1.7.1 1.1 0 2.2 0 3.3-.1 1-.1 1.9-.3 2.9-.3 1.5 0 3.1-.3 4.6-.3.9 0 1.7 0 2.5-.1.5-.1 1-.2 1.5-.2"/><path class="st0" d="M294.7 66.5c0-1-.2-2-.3-3-.1-1.7-.2-3.4-.2-5.2 0-1.2.1-2.3 0-3.5-.1-.8-.2-1.7-.2-2.5-.2-2.9.3-5.8.3-8.7 0-1.1.1-2.1.2-3.2.1-1.4.1-2.8.1-4.2 0-2.3.1-4.6.1-6.9 0-1.3-.3-2.6-.3-3.9 0-1.3.2-2.6 0-3.9-.1-.8-.4-1.6-.4-2.5m57.8.4c0 .3 0 .6-.1.9-.1.6-.1 1.3-.2 1.9-.1.9-.2 1.9-.3 2.8-.3 2.3-.9 4.5-1 6.8-.1 3 0 5.9.2 8.9 0 1.1.1 2.1.2 3.2.1.7.3 1.5.3 2.2v1c.1.4.2.7.3 1 .3.7.2 1.6.6 2.3.3.4.5.9.7 1.3.2.3.4.9.8 1.1.3.2.6.2.8.4.5.3.8.9 1.3 1.2.3.2.7.1 1 .1.6 0 1.1.1 1.7.1 1.1 0 2.2 0 3.3-.1 1-.1 1.9-.3 2.9-.3 1.5 0 3.1-.3 4.6-.3.9 0 1.7 0 2.5-.1.5-.1 1-.2 1.5-.2"/><path class="st0" d="M367.7 66.5c0-1-.2-2-.3-3-.1-1.7-.2-3.4-.2-5.2 0-1.2.1-2.3 0-3.5-.1-.8-.2-1.7-.2-2.5-.2-2.9.3-5.8.3-8.7 0-1.1.1-2.1.2-3.2.1-1.4.1-2.8.1-4.2 0-2.3.1-4.6.1-6.9 0-1.3-.3-2.6-.3-3.9 0-1.3.2-2.6 0-3.9-.1-.8-.4-1.6-.4-2.5m-43.6-.1c-.6.3-1.1.9-1.5 1.5-.8 1.3-1.4 2.8-2.2 4.1-1 1.7-2 3.4-2.7 5.3-.4 1.1-.7 2.1-1.1 3.2-.4.9-.9 1.7-1.2 2.6-.3 1-.5 2-.9 3.1l-.6 1.5c-.1.2-.3.6-.4.9-.1.3 0 .7 0 1 0 .4-.1.9.1 1.3.2.5.5.7.7 1.2.2.6.3 1.2.5 1.7.5 1.3 1.1 2.7 1.4 4.1.1.4.2.9.3 1.3.4 1 1 2 1.6 2.9.6.9 1.3 1.9 1.9 2.9.2.3.3.7.6 1 .2.3.5.6.7.8.5.5.9 1.1 1.3 1.7.9 1.3 1.5 2.7 3 3.5.4.3.6.2 1.1.1.7-.2 1.3-.7 1.9-1.2.8-.7 1.4-1.7 2.1-2.5l1.5-1.8c.5-.6 1-1.1 1.4-1.7.4-.6.7-1.3 1.1-1.8.5-.7.7-1.5 1-2.2.1-.3.3-.6.5-1 .2-.5.2-1 .5-1.4.4-.8.8-1.6 1.1-2.5.3-.8 1-1.5 1.2-2.4.1-.4.2-.7.2-1.1v-.7c-.1-.6 0-1.3-.1-1.9-.1-.9-.5-1.8-.7-2.7-.2-.9-.6-1.8-.9-2.7-.4-1.2-.7-2.3-1.3-3.4-.4-.7-.6-1.5-.9-2.1-.4-1-.9-1.7-1.4-2.6-.3-.6-.6-1.3-.9-1.9-.4-.8-1-1.5-1.5-2.3-.4-.6-.7-1.1-.9-1.7-.5-1-1.3-1.9-2-2.6-.6-.6-1-1.1-1.7-1.4-.3-.1-.6-.3-1-.2-.9-.1-1.7 0-1.8.1z"/></g></svg>